# xmcd
#
# Track frame offsets:
#	150
#	11664
#	24318
#	37505
#	49094
#	63443
#	75493
#	88886
#	106309
#	119039
#	130849
#	147074
#	162550
#	175918
#	193534
#	207115
#	225062
#	238393
#	252151
#	270307
#
# Disc length: 3888 seconds
# Revision: 0
# Processed by: cddbd v1.5.2PL0 Copyright (c) Steve Scherf et al.
# Submitted via: dBpowerAMP V12.0
#
DISCID=020f2e14
DTITLE=Giannis Parios - Gia Panta Mazi
DYEAR=2009
DGENRE=
TTITLE0=Ragise o kathreftis
TTITLE1=H Thalassa Tou Pirea
TTITLE2=Ena Geriko Katavi
TTITLE3=Petrovolousa ti zoi
TTITLE4=Tis Miras to Pehnidi
TTITLE5=Ti Thelis na kano
TTITLE6=Ti Krima
TTITLE7=Tora pia (tu t'en vas)
TTITLE8=Tha se thimame
TTITLE9=Pou tha paei pou 
TTITLE10=Pote den se xehno (el bimbo)
TTITLE11=Lipisou me
TTITLE12=Signomi pou s'agapisa poli
TTITLE13=Mi Fevgis mi (Avant de nous dire adieu)
TTITLE14=Na lipon giati s'agapisa
TTITLE15=Tha me thimithis
TTITLE16=Erxondai Stigmes
TTITLE17=Ah Agapi
TTITLE18=Mi M'afinis mi
TTITLE19=Adiexodo
EXTD=
EXTT0=
EXTT1=
EXTT2=
EXTT3=
EXTT4=
EXTT5=
EXTT6=
EXTT7=
EXTT8=
EXTT9=
EXTT10=
EXTT11=
EXTT12=
EXTT13=
EXTT14=
EXTT15=
EXTT16=
EXTT17=
EXTT18=
EXTT19=
PLAYORDER=
